<svg version="1.1" id="_x31_0" xmlns="http://www.w3.org/2000/svg" xmlns:xlink="http://www.w3.org/1999/xlink" x="0px" y="0px" viewBox="0 0 512 512" style="width: 256px; height: 256px; opacity: 1;" xml:space="preserve">
<style type="text/css">
	.st0{fill:#374149;}
</style>
<g>
	<path class="st0" d="M0.382,499.274c-0.469,1.496-0.461,2.97-0.217,4.378c0.006,0.017,0.006,0.039,0.009,0.058
		c0.13,0.719,0.336,1.402,0.619,2.067c0.01,0.028,0.022,0.05,0.033,0.078c1.902,4.354,6.806,7.286,11.858,5.716l136.601-42.635
		l358.099-357.943c0.039-0.039,0.083-0.083,0.125-0.125c6.44-6.576,5.749-17.362-0.76-23.868L422.601,2.889
		c-6.818-4.378-15.762-3.806-21.469,1.898L43.033,362.73L0.382,499.274z M414.042,29.19l69.838,69.807L154.698,428.037
		l-33.274-33.259L84.86,358.23l169.378-169.305L414.042,29.19z M75.072,366.193l37.471,37.455l33.278,33.262l-9.918,9.914
		L60.385,470.39c-1.21-3.396-3.847-7.43-7.611-11.193c-3.762-3.76-7.8-6.393-11.195-7.611l23.575-75.479L75.072,366.193z" style="fill: rgb(159, 157, 157);"></path>
</g>
</svg>
